<svg width="30" height="30" viewBox="0 0 30 30" fill="none" xmlns="http://www.w3.org/2000/svg">
<path d="M24.2284 4.80002H21.6004V3.00002C21.6004 2.84089 21.5372 2.68828 21.4247 2.57576C21.3121 2.46324 21.1595 2.40002 21.0004 2.40002C20.8413 2.40002 20.6886 2.46324 20.5761 2.57576C20.4636 2.68828 20.4004 2.84089 20.4004 3.00002V4.80002H9.60039V3.00002C9.60039 2.84089 9.53718 2.68828 9.42465 2.57576C9.31213 2.46324 9.15952 2.40002 9.00039 2.40002C8.84126 2.40002 8.68865 2.46324 8.57613 2.57576C8.4636 2.68828 8.40039 2.84089 8.40039 3.00002V4.80002H5.77239C4.87808 4.80002 4.0204 5.15529 3.38803 5.78766C2.75565 6.42003 2.40039 7.27771 2.40039 8.17202V24.228C2.40039 25.1223 2.75565 25.98 3.38803 26.6124C4.0204 27.2448 4.87808 27.6 5.77239 27.6H24.2284C25.1227 27.6 25.9804 27.2448 26.6128 26.6124C27.2451 25.98 27.6004 25.1223 27.6004 24.228V8.17202C27.6004 7.27771 27.2451 6.42003 26.6128 5.78766C25.9804 5.15529 25.1227 4.80002 24.2284 4.80002ZM5.77239 6.00002H24.2284C24.8044 6.00002 25.3569 6.22886 25.7642 6.63619C26.1716 7.04352 26.4004 7.59597 26.4004 8.17202V9.60002H3.60039V8.17202C3.60039 7.59597 3.82923 7.04352 4.23655 6.63619C4.64388 6.22886 5.19634 6.00002 5.77239 6.00002ZM24.2284 26.4H5.77239C5.19634 26.4 4.64388 26.1712 4.23655 25.7639C3.82923 25.3565 3.60039 24.8041 3.60039 24.228V10.8H26.4004V24.228C26.4004 24.8041 26.1716 25.3565 25.7642 25.7639C25.3569 26.1712 24.8044 26.4 24.2284 26.4Z" fill="white"/>
</svg>
