<svg width="35" height="35" viewBox="0 0 35 35" fill="none" xmlns="http://www.w3.org/2000/svg">
<path d="M27.8223 0H7.17773C3.21993 0 0 3.21993 0 7.17773V27.8223C0 31.7801 3.21993 35 7.17773 35H27.8223C31.7801 35 35 31.7801 35 27.8223V7.17773C35 3.21993 31.7801 0 27.8223 0ZM25.6145 9.98047L17.4971 18.0978L9.3798 9.98047H25.6145ZM7.0242 23.1077C6.94791 22.9643 6.9043 22.8007 6.9043 22.627V11.0059C6.9043 10.8321 6.94791 10.6685 7.0242 10.5251L13.3155 16.8164L7.0242 23.1077ZM9.3798 23.6523L14.7656 18.2665L17.4972 20.9981L20.2316 18.2637L25.6202 23.6523H9.3798ZM28.0957 22.627C28.0957 22.8007 28.0521 22.9643 27.9758 23.1077L21.6816 16.8136L27.9739 10.5213C28.0515 10.6656 28.0957 10.8305 28.0957 11.0059V22.627Z" fill="#D8B2AF"/>
</svg>
