<svg width="32" height="31" viewBox="0 0 32 31" fill="none" xmlns="http://www.w3.org/2000/svg">
<g clip-path="url(#clip0_581_245)">
<path d="M23.7117 0.199997H8.41172C4.12772 0.199997 0.761719 3.566 0.761719 7.85V23.15C0.761719 27.434 4.12772 30.8 8.41172 30.8H23.7117C27.9957 30.8 31.3617 27.434 31.3617 23.15V7.85C31.3617 3.566 27.9957 0.199997 23.7117 0.199997ZM28.3017 23.15C28.3017 25.751 26.3127 27.74 23.7117 27.74H8.41172C5.81072 27.74 3.82172 25.751 3.82172 23.15V7.85C3.82172 5.249 5.81072 3.26 8.41172 3.26H23.7117C26.3127 3.26 28.3017 5.249 28.3017 7.85V23.15Z" fill="white"/>
<path d="M16.0621 7.85C11.7781 7.85 8.41211 11.216 8.41211 15.5C8.41211 19.784 11.7781 23.15 16.0621 23.15C20.3461 23.15 23.7121 19.784 23.7121 15.5C23.7121 11.216 20.3461 7.85 16.0621 7.85ZM16.0621 20.09C13.4611 20.09 11.4721 18.101 11.4721 15.5C11.4721 12.899 13.4611 10.91 16.0621 10.91C18.6631 10.91 20.6521 12.899 20.6521 15.5C20.6521 18.101 18.6631 20.09 16.0621 20.09Z" fill="white"/>
<path d="M23.7116 9.37999C24.5566 9.37999 25.2416 8.69499 25.2416 7.84999C25.2416 7.005 24.5566 6.31999 23.7116 6.31999C22.8666 6.31999 22.1816 7.005 22.1816 7.84999C22.1816 8.69499 22.8666 9.37999 23.7116 9.37999Z" fill="white"/>
</g>
<defs>
<clipPath id="clip0_581_245">
<rect width="30.6" height="30.6" fill="white" transform="translate(0.759766 0.200005)"/>
</clipPath>
</defs>
</svg>
