<svg width="30" height="30" viewBox="0 0 30 30" fill="none" xmlns="http://www.w3.org/2000/svg">
<path d="M14.6709 26.3412C14.7086 26.3919 14.7574 26.4332 14.8136 26.462C14.8699 26.4907 14.9319 26.5062 14.9951 26.5071H15.0005C15.0627 26.5071 15.1241 26.4929 15.18 26.4657C15.2359 26.4384 15.2849 26.3988 15.3232 26.3498C15.6626 25.917 23.6318 15.6743 23.6318 9.18727C23.6318 6.8981 22.7224 4.70268 21.1037 3.084C19.4851 1.46531 17.2896 0.555939 15.0005 0.555939C12.7113 0.555939 10.5159 1.46531 8.8972 3.084C7.27851 4.70268 6.36914 6.8981 6.36914 9.18727C6.36914 11.6716 7.77094 15.3197 10.5361 20.0295C12.5789 23.509 14.6503 26.3133 14.6709 26.3412ZM15.0005 1.37625C17.0714 1.37855 19.0569 2.20226 20.5212 3.66666C21.9856 5.13107 22.8093 7.11655 22.8115 9.1875C22.8115 14.6646 16.5359 23.3716 15.0089 25.4086C13.5005 23.2929 7.18945 14.1534 7.18945 9.1875C7.19169 7.11655 8.01534 5.13107 9.4797 3.66666C10.9441 2.20226 12.9295 1.37855 15.0005 1.37625Z" fill="white"/>
<path d="M19.9625 9.1875C19.9625 8.20615 19.6716 7.24683 19.1264 6.43085C18.5812 5.61487 17.8063 4.97887 16.8997 4.6033C15.9931 4.22772 14.9954 4.12943 14.0329 4.32085C13.0705 4.51227 12.1863 4.98481 11.4924 5.67871C10.7985 6.37261 10.3259 7.25671 10.1344 8.21919C9.94295 9.18168 10.0412 10.1793 10.4167 11.086C10.7923 11.9926 11.4282 12.7676 12.2442 13.3128C13.0601 13.858 14.0194 14.149 15.0008 14.149C16.3162 14.1476 17.5774 13.6244 18.5076 12.6942C19.4378 11.7641 19.961 10.5029 19.9625 9.1875ZM15.0008 13.3287C14.1817 13.3287 13.381 13.0858 12.6999 12.6307C12.0189 12.1756 11.488 11.5288 11.1746 10.7721C10.8612 10.0153 10.7792 9.18259 10.939 8.37923C11.0988 7.57587 11.4932 6.83794 12.0724 6.25876C12.6517 5.67958 13.3896 5.28517 14.193 5.1254C14.9963 4.96563 15.8291 5.04768 16.5858 5.36117C17.3425 5.67466 17.9893 6.20551 18.4444 6.88659C18.8994 7.56767 19.1422 8.36839 19.1422 9.1875C19.1409 10.2854 18.7041 11.338 17.9277 12.1144C17.1514 12.8907 16.0987 13.3274 15.0008 13.3287Z" fill="white"/>
<path d="M19.1823 23.7108C19.0757 23.7003 18.9692 23.7319 18.8855 23.7989C18.8019 23.8659 18.7478 23.9629 18.7347 24.0693C18.7217 24.1756 18.7508 24.2829 18.8158 24.3681C18.8807 24.4533 18.9765 24.5097 19.0825 24.5252C22.6138 24.9586 23.7564 25.7761 23.7564 26.104C23.7564 26.7197 20.6659 27.918 15.0002 27.918C9.33438 27.918 6.24391 26.7188 6.24391 26.104C6.24391 25.7524 7.36445 25.0331 10.372 24.5981C10.4775 24.5802 10.5718 24.5217 10.6349 24.4352C10.6979 24.3486 10.7246 24.2409 10.7093 24.1349C10.694 24.029 10.6379 23.9332 10.553 23.868C10.4681 23.8028 10.3611 23.7734 10.2548 23.786C8.05164 24.105 5.42383 24.7657 5.42383 26.104C5.42383 28.0369 11.1508 28.7384 15.0004 28.7384C18.85 28.7384 24.577 28.0369 24.577 26.104C24.5767 24.5979 21.197 23.9583 19.1823 23.7108Z" fill="white"/>
</svg>
