<svg width="31" height="31" viewBox="0 0 31 31" fill="none" xmlns="http://www.w3.org/2000/svg">
<g clip-path="url(#clip0_581_250)">
<path d="M31.0004 6.01209C29.8625 6.51125 28.6499 6.84211 27.3858 7.00276C28.6863 6.22629 29.6789 5.00611 30.1455 3.5354C28.933 4.25832 27.5942 4.76896 26.1675 5.05392C25.0162 3.82801 23.3753 3.06875 21.5852 3.06875C18.1121 3.06875 15.316 5.88777 15.316 9.34366C15.316 9.84091 15.3581 10.319 15.4613 10.7742C10.2459 10.5198 5.63108 8.02021 2.53092 4.21242C1.98968 5.15146 1.6722 6.22629 1.6722 7.38335C1.6722 9.55595 2.79102 11.4818 4.45872 12.5968C3.45083 12.5777 2.46207 12.2851 1.62439 11.8242C1.62439 11.8433 1.62439 11.8682 1.62439 11.893C1.62439 14.9415 3.7989 17.4737 6.65044 18.057C6.1398 18.1966 5.58327 18.2636 5.00569 18.2636C4.60407 18.2636 4.19862 18.2406 3.81803 18.1565C4.63084 20.6408 6.93732 22.4672 9.67984 22.5265C7.54549 24.1961 4.83548 25.2021 1.9017 25.2021C1.38724 25.2021 0.893816 25.1792 0.400391 25.1161C3.17925 26.9081 6.47258 27.9312 10.0241 27.9312C21.5679 27.9312 27.8792 18.3687 27.8792 10.08C27.8792 9.80266 27.8696 9.53491 27.8562 9.26907C29.1013 8.3855 30.1474 7.28199 31.0004 6.01209Z" fill="white"/>
</g>
<defs>
<clipPath id="clip0_581_250">
<rect width="30.6" height="30.6" fill="white" transform="translate(0.400391 0.200005)"/>
</clipPath>
</defs>
</svg>
